<svg width="41" height="10" viewBox="0 0 41 10" fill="none" xmlns="http://www.w3.org/2000/svg">
<path d="M2.67439 9.70144C2.03844 9.70144 1.53148 9.58235 1.15351 9.34418C0.775534 9.11211 0.586548 8.79455 0.586548 8.39148C0.586548 7.95177 0.82953 7.59146 1.31549 7.31053C1.05151 7.14564 0.919523 6.92884 0.919523 6.66013C0.919523 6.51967 0.958521 6.39448 1.03651 6.28455C1.12051 6.17462 1.2315 6.08607 1.36949 6.01889C1.14151 5.854 0.96752 5.64331 0.847529 5.38681C0.733537 5.13032 0.676541 4.84939 0.676541 4.54404C0.676541 4.20815 0.748536 3.9028 0.892525 3.62798C1.03651 3.34706 1.2465 3.12721 1.52248 2.96842C1.79846 2.80353 2.12544 2.72109 2.50341 2.72109C2.89938 2.72109 3.24135 2.8188 3.52933 3.01423C3.63132 2.95926 3.76631 2.91346 3.9343 2.87682C4.10829 2.83407 4.29428 2.81269 4.49226 2.81269H4.70825L4.66331 3.25863C4.64795 3.41114 4.51958 3.52722 4.36631 3.52722H4.30328C4.20128 3.52722 4.11729 3.53027 4.05129 3.53638C4.23128 3.8173 4.32127 4.15319 4.32127 4.54404C4.32127 4.87993 4.24928 5.18833 4.10529 5.46926C3.9673 5.74408 3.76032 5.96393 3.48434 6.12882C3.20836 6.2876 2.88138 6.36699 2.50341 6.36699C2.36542 6.36699 2.20643 6.34562 2.02644 6.30287C1.96045 6.33341 1.92745 6.38226 1.92745 6.44944C1.92745 6.52883 1.97245 6.59296 2.06244 6.64181C2.15843 6.68456 2.31742 6.7212 2.5394 6.75174L3.31335 6.8525C4.34527 6.99297 4.86123 7.43573 4.86123 8.18079C4.86123 8.64492 4.66625 9.0144 4.27628 9.28922C3.89231 9.56403 3.35834 9.70144 2.67439 9.70144ZM2.50341 5.52422C2.76139 5.52422 2.95937 5.43872 3.09736 5.26773C3.24135 5.09062 3.31335 4.84939 3.31335 4.54404C3.31335 4.23869 3.24135 4.00051 3.09736 3.82952C2.95937 3.65241 2.76139 3.56386 2.50341 3.56386C2.23943 3.56386 2.03544 3.65241 1.89145 3.82952C1.75346 4.00051 1.68447 4.23869 1.68447 4.54404C1.68447 4.84939 1.75346 5.09062 1.89145 5.26773C2.03544 5.43872 2.23943 5.52422 2.50341 5.52422ZM2.71939 8.84035C3.48734 8.84035 3.87131 8.64798 3.87131 8.26323C3.87131 8.09224 3.80531 7.96399 3.67332 7.87849C3.54133 7.7991 3.32235 7.73497 3.01637 7.68612L2.02644 7.53955C1.68447 7.68001 1.51348 7.89376 1.51348 8.18079C1.51348 8.40064 1.61847 8.56553 1.82846 8.67546C2.03844 8.78538 2.33542 8.84035 2.71939 8.84035Z" fill="#3B755F"/>
<path d="M5.131 2.81269H6.17493L6.20193 3.2982C6.33392 3.14553 6.5019 3.01117 6.70589 2.89514C6.91587 2.77911 7.13486 2.72109 7.36284 2.72109C7.43483 2.72109 7.50083 2.7272 7.56083 2.73941L7.47983 3.857C7.36584 3.82646 7.23685 3.8112 7.09286 3.8112C6.90687 3.8112 6.73589 3.857 6.5799 3.9486C6.42391 4.0341 6.31292 4.14098 6.24692 4.26922V7.39298H5.131V2.81269Z" fill="#3B755F"/>
<path d="M9.91036 7.48458C9.3884 7.48458 8.94143 7.37771 8.56946 7.16396C8.20348 6.94411 7.9275 6.65403 7.74152 6.29371C7.56153 5.92729 7.47153 5.52117 7.47153 5.07535C7.47153 4.64786 7.55853 4.25701 7.73252 3.9028C7.9065 3.54859 8.15848 3.26767 8.48846 3.06003C8.81844 2.84628 9.21141 2.73941 9.66737 2.73941C10.0873 2.73941 10.4413 2.82796 10.7293 3.00507C11.0233 3.18217 11.2423 3.42035 11.3862 3.71959C11.5362 4.01884 11.6112 4.35472 11.6112 4.72725C11.6112 4.91046 11.5872 5.1181 11.5392 5.35017H8.63245C8.69245 5.75324 8.84844 6.05554 9.10042 6.25707C9.3524 6.45249 9.65538 6.55021 10.0093 6.55021C10.4953 6.55021 10.9453 6.42501 11.3593 6.17462L11.4132 7.13648C11.2213 7.2403 10.9963 7.3258 10.7383 7.39298C10.4863 7.45405 10.2103 7.48458 9.91036 7.48458ZM10.4773 4.58068C10.4773 4.34251 10.4113 4.13182 10.2793 3.9486C10.1473 3.76539 9.94335 3.67379 9.66737 3.67379C9.39139 3.67379 9.16941 3.75623 9.00142 3.92112C8.83344 4.08601 8.71944 4.30587 8.65945 4.58068H10.4773Z" fill="#3B755F"/>
<path d="M14.3619 7.48458C13.8399 7.48458 13.3929 7.37771 13.021 7.16396C12.655 6.94411 12.379 6.65403 12.193 6.29371C12.013 5.92729 11.923 5.52117 11.923 5.07535C11.923 4.64786 12.01 4.25701 12.184 3.9028C12.358 3.54859 12.61 3.26767 12.94 3.06003C13.2699 2.84628 13.6629 2.73941 14.1189 2.73941C14.5389 2.73941 14.8928 2.82796 15.1808 3.00507C15.4748 3.18217 15.6938 3.42035 15.8378 3.71959C15.9877 4.01884 16.0627 4.35472 16.0627 4.72725C16.0627 4.91046 16.0387 5.1181 15.9907 5.35017H13.084C13.144 5.75324 13.2999 6.05553 13.5519 6.25707C13.8039 6.45249 14.1069 6.55021 14.4609 6.55021C14.9468 6.55021 15.3968 6.42501 15.8108 6.17462L15.8648 7.13648C15.6728 7.2403 15.4478 7.3258 15.1898 7.39298C14.9378 7.45405 14.6618 7.48458 14.3619 7.48458ZM14.9288 4.58068C14.9288 4.34251 14.8628 4.13182 14.7308 3.9486C14.5988 3.76539 14.3949 3.67379 14.1189 3.67379C13.8429 3.67379 13.6209 3.75623 13.4529 3.92112C13.2849 4.08601 13.171 4.30587 13.111 4.58068H14.9288Z" fill="#3B755F"/>
<path d="M18.7324 2.73941C19.2903 2.73941 19.7133 2.92873 20.0013 3.30737C20.2893 3.686 20.4333 4.19594 20.4333 4.83718V7.39298H19.3173V4.92879C19.3173 4.50129 19.2453 4.18678 19.1014 3.98525C18.9634 3.77761 18.7384 3.67379 18.4264 3.67379C18.0844 3.67379 17.8025 3.80509 17.5805 4.06769V7.39298H16.4645V2.81269H17.5085L17.5265 3.13331C17.9044 2.87071 18.3064 2.73941 18.7324 2.73941Z" fill="#3B755F"/>
<path d="M22.3479 7.48458C22.06 7.48458 21.796 7.4571 21.556 7.40214C21.322 7.34718 21.079 7.26168 20.827 7.14564L20.926 6.17462C21.178 6.3273 21.412 6.44333 21.628 6.52272C21.85 6.59601 22.078 6.63265 22.3119 6.63265C22.7679 6.63265 22.9959 6.47997 22.9959 6.17462C22.9959 6.00973 22.9359 5.88454 22.8159 5.79904C22.6959 5.70743 22.4799 5.60056 22.1679 5.47842C21.724 5.31353 21.397 5.12726 21.187 4.91962C20.977 4.70588 20.872 4.41885 20.872 4.05853C20.872 3.66157 21.022 3.34095 21.322 3.09667C21.622 2.84628 22.027 2.72109 22.5369 2.72109C23.0469 2.72109 23.5119 2.84018 23.9318 3.07835L23.8328 4.04937C23.6048 3.89059 23.3889 3.76845 23.1849 3.68295C22.9869 3.59745 22.7769 3.5547 22.5549 3.5547C22.3629 3.5547 22.2129 3.5944 22.105 3.67379C22.003 3.75318 21.952 3.86616 21.952 4.01273C21.952 4.12876 21.982 4.22342 22.042 4.29671C22.108 4.36999 22.1979 4.43717 22.3119 4.49824C22.4259 4.5532 22.6149 4.63259 22.8789 4.73641C23.3169 4.90741 23.6318 5.09673 23.8238 5.30437C24.0158 5.5059 24.1118 5.77766 24.1118 6.11966C24.1118 6.55326 23.9588 6.88915 23.6528 7.12732C23.3469 7.3655 22.9119 7.48458 22.3479 7.48458Z" fill="#3B755F"/>
<path d="M26.8643 2.73941C27.2902 2.73941 27.6562 2.84628 27.9622 3.06003C28.2682 3.27378 28.4992 3.56081 28.6551 3.92112C28.8111 4.28144 28.8891 4.6784 28.8891 5.112C28.8891 5.5456 28.8111 5.94255 28.6551 6.30287C28.4992 6.66319 28.2682 6.95022 27.9622 7.16396C27.6562 7.37771 27.2902 7.48458 26.8643 7.48458C26.5943 7.48458 26.3633 7.45405 26.1713 7.39298C25.9853 7.33801 25.8053 7.24641 25.6314 7.11816V9.21178V9.703H25.2617C24.8496 9.703 24.5154 9.36889 24.5154 8.95673V2.81269H25.4154L25.5324 3.23408C25.7244 3.06919 25.9253 2.94705 26.1353 2.86766C26.3453 2.78216 26.5883 2.73941 26.8643 2.73941ZM26.6933 6.55021C27.0233 6.55021 27.2812 6.4189 27.4672 6.1563C27.6532 5.8937 27.7462 5.5456 27.7462 5.112C27.7462 4.6784 27.6532 4.33029 27.4672 4.06769C27.2812 3.80509 27.0233 3.67379 26.6933 3.67379C26.3213 3.67379 26.0423 3.80204 25.8563 4.05853C25.6704 4.31503 25.5774 4.66618 25.5774 5.112C25.5774 5.55781 25.6704 5.90897 25.8563 6.16546C26.0423 6.42196 26.3213 6.55021 26.6933 6.55021Z" fill="#3B755F"/>
<path d="M30.4574 7.48458C30.0854 7.48458 29.7734 7.36244 29.5215 7.11816C29.2755 6.86777 29.1525 6.53188 29.1525 6.1105C29.1525 5.71354 29.2935 5.39597 29.5755 5.1578C29.8574 4.91352 30.1904 4.74252 30.5744 4.64481C30.9584 4.54099 31.3273 4.48297 31.6813 4.47076C31.6693 4.20205 31.6003 4.00968 31.4743 3.89364C31.3543 3.77761 31.1533 3.71959 30.8714 3.71959C30.6734 3.71959 30.4784 3.74707 30.2864 3.80204C30.1004 3.857 29.8844 3.94555 29.6385 4.06769L29.5395 3.14247C30.0854 2.87376 30.6314 2.73941 31.1773 2.73941C31.7053 2.73941 32.1073 2.88598 32.3833 3.17912C32.6652 3.47226 32.8062 3.93944 32.8062 4.58068V5.81736C32.8062 6.04943 32.8152 6.21737 32.8332 6.32119C32.8572 6.4189 32.8932 6.48303 32.9412 6.51356C32.9952 6.53799 33.0822 6.55021 33.2022 6.55021H33.3462L33.2472 7.48458H32.8422C32.5962 7.48458 32.3893 7.43878 32.2213 7.34718C32.0533 7.24946 31.9243 7.11816 31.8343 6.95327C31.6903 7.11816 31.4923 7.24946 31.2403 7.34718C30.9944 7.43878 30.7334 7.48458 30.4574 7.48458ZM30.9254 6.61433C31.0394 6.61433 31.1683 6.58685 31.3123 6.53188C31.4563 6.47081 31.5823 6.38837 31.6903 6.28455V5.24024C31.3303 5.25857 31.0124 5.33796 30.7364 5.47842C30.4604 5.61888 30.3224 5.81431 30.3224 6.0647C30.3224 6.25401 30.3704 6.39448 30.4664 6.48608C30.5624 6.57158 30.7154 6.61433 30.9254 6.61433Z" fill="#3B755F"/>
<path d="M33.6976 2.81269H34.7415L34.7685 3.2982C34.9005 3.14553 35.0685 3.01117 35.2725 2.89514C35.4824 2.77911 35.7014 2.72109 35.9294 2.72109C36.0014 2.72109 36.0674 2.7272 36.1274 2.73941L36.0464 3.857C35.9324 3.82646 35.8034 3.8112 35.6594 3.8112C35.4734 3.8112 35.3025 3.857 35.1465 3.9486C34.9905 4.0341 34.8795 4.14098 34.8135 4.26922V7.39298H33.6976V2.81269Z" fill="#3B755F"/>
<path d="M36.4791 0.522552H37.595V4.69061L38.9899 2.81269H40.2498L38.6119 5.01123L40.2858 7.39298H39.0259L37.595 5.35933V7.39298H36.4791V0.522552Z" fill="#3B755F"/>
</svg>
