<svg width="33" height="33" viewBox="0 0 33 33" fill="none" xmlns="http://www.w3.org/2000/svg">
<path fill-rule="evenodd" clip-rule="evenodd" d="M16.5978 0.296997C7.69064 0.296997 0.469971 7.51767 0.469971 16.4248C0.469971 25.332 7.69064 32.5526 16.5978 32.5526C25.5049 32.5526 32.7256 25.332 32.7256 16.4248C32.7256 7.51767 25.5049 0.296997 16.5978 0.296997ZM17.5438 27.199C10.9205 27.647 5.82826 15.3899 8.21764 13.009C10.3974 10.837 11.2627 11.6134 11.6721 13.4321C11.9007 14.4477 11.7311 15.6938 11.5781 16.8168C11.4453 17.7927 11.325 18.6756 11.4899 19.2334C11.8444 20.4331 12.453 21.3839 13.1536 21.3164C13.8542 21.2489 14.9405 19.3642 12.6027 12.1573C10.88 6.84704 15.5033 5.01134 15.9268 6.11656C16.118 6.6155 15.8558 7.43242 15.5478 8.39211C15.1736 9.55832 14.7316 10.9354 14.9533 12.2088C15.1348 13.251 15.3079 13.8299 15.4625 14.3469C15.6523 14.9814 15.8141 15.5226 15.9293 16.7129C15.9781 17.2168 15.9546 17.8618 15.9297 18.5473C15.8668 20.2787 15.7944 22.2693 16.852 22.9027C18.3283 23.7869 18.9758 19.4874 17.5542 11.7192C16.2777 4.74359 20.8591 6.89465 20.9799 9.00927C21.1008 11.1239 20.9667 14.3007 20.1122 18.7428C19.2577 23.185 19.8792 23.5508 20.9799 22.4336C22.0806 21.3164 22.1421 20.5267 21.5044 16.1227C21.0698 13.1211 25.7682 11.5922 25.2615 15.5363C24.7516 19.5063 22.4433 26.8676 17.5438 27.199Z" fill="#F9F9F9"/>
</svg>
